Patient4_TMGait_0pt7_01_left_27_EMG.mot
version=1
nRows=13
nColumns=33
inDegrees=no
endheader
time	1LAddLong	2LGlutMax	3LGlutMed	4LIliopsoas	5LSemiMemb	6LBicFemLong	7LRecFem	8LVastMed	9LVastLat	10LGasMed	11LTibAnt	12lTibPost	13LPeroneusLong	14LSol	15LExtDigLong	16LFlexDigLong	17RAddLong	18RGlutMax	19RGlutMed	20RIliopsoas	21RSemiMemb	22RBicFemLong	23RRecFem	24RVastMed	25RVastLat	26RGasMed	27RTibAnt	28RTibPost	29RPeroneusLong	30RSol	31RExtDigLong	32RFlexDigLong
32.318	0.003967	0.34775	-0.081635	0.001373	-0.040741	-0.032806	-0.010834	0.003815	0.13214	-0.051422	0.007629	-0.007782	0.045166	-0.035553	-0.11429	0.01358	-0.040131	0.20035	0.71457	0.072327	-0.30991	0.021667	0.033569	0.007324	-0.036163	0.054016	0.16541	-0.016937	-0.20691	-0.43564	0.003967	0.009155
32.319	0.005188	0.35278	-0.093842	0.003967	-0.053864	-0.050201	-0.03479	0.002899	0.12955	-0.041656	0.039825	-0.000305	0.063019	-0.025635	-0.26276	-0.003204	0.002441	0.18005	0.55985	0.063477	0.13977	-0.17151	0.19257	0.002289	-0.014343	0.054169	0.041809	-0.024719	-0.076294	-0.802	-0.003357	0.003662
32.32	0.002594	0.32059	-0.121	0.006866	-0.013428	-0.032654	-0.025635	0.009308	0.11612	-0.05188	0.028992	-0.010376	0.075836	-0.010529	-0.088348	0.003815	0.018616	0.077667	0.401	0.011292	0.2002	-0.25894	0.15793	0.026703	-0.051727	0.063019	-0.28503	-0.019379	-0.015717	-0.79575	0.000305	0.004272
32.321	0.013885	0.29709	-0.11612	-0.002136	0.040894	-0.013123	-0.031128	0.003662	0.11643	-0.05127	0.008087	-0.012054	0.058594	-0.046082	-0.14084	0.001068	-0.007172	0.052795	0.46845	0.013275	-0.019226	-0.20294	0	0.12436	-0.13382	0.055084	0.078735	-0.027313	-0.13901	-0.53162	-0.002136	-0.001678
32.322	0.020294	0.29297	-0.13641	0.006409	0.034943	-0.000763	-0.042877	0.006104	0.11017	-0.044708	0.00473	-0.00946	0.039063	-0.074158	-0.15457	0.002441	-0.035095	0.007324	0.46799	-0.021515	-0.14572	-0.080566	0.13001	0.11063	-0.10056	0.046539	0.43167	-0.025024	-0.35568	-0.44617	-0.00885	-0.012817
32.323	0.030212	0.28244	-0.15442	0.005188	0.011597	0.022583	-0.048523	0.00412	0.11948	-0.072327	0.003662	-0.013123	0.023651	-0.092163	-0.075989	-0.015259	-0.031586	-0.0383	0.35019	-0.005493	-0.061951	-0.027008	0.13458	0.046692	-0.062256	0.054779	-0.26642	-0.0177	-0.37659	-0.50583	-0.002136	-0.011139
32.324	0.023346	0.23712	-0.16235	0.010834	0	0.031281	-0.056152	-0.001526	0.11902	-0.057678	0.000763	-0.005341	0.035706	-0.056152	-0.03067	0.001678	-0.023651	-0.072174	0.21545	-0.044403	0.061493	0.006256	-0.43045	-0.10559	0.029297	0.04837	-0.64911	-0.01709	0.21408	-0.24597	-0.002136	-0.001984
32.325	0.017548	0.23209	-0.19684	0.011749	-0.005493	0.058441	-0.068512	0.009918	0.094299	-0.032654	0.006714	-0.00824	0.04364	-0.064545	0.000305	-0.009155	-0.005035	-0.085754	0.2063	-0.033112	0.008698	0.027466	-0.68451	-0.14572	0.071869	0.021515	-0.39612	-0.013733	1.3519	0.1741	-0.001831	-0.001221
32.326	0.020142	0.20187	-0.21286	0.012054	-0.013275	0.091248	-0.083008	0.006714	0.093689	-0.007477	0.011902	-0.007324	0.066223	-0.080414	0.009918	-0.00824	0.006866	-0.20523	0.23758	-0.042114	0.031433	0.061035	-0.63599	-0.12268	0.10346	-0.041046	-0.1059	-0.020752	1.3033	0.19836	-0.001068	-0.002289
32.327	0.00885	0.18417	-0.2005	-0.005798	-0.012665	0.09079	-0.070953	0.007172	0.076904	-0.016785	0.011902	-0.006104	0.081024	-0.06958	0.011902	-0.001678	0.000305	-0.16388	0.10239	-0.032196	0.038757	0.048065	-0.52948	-0.10193	0.15823	-0.14053	-0.11871	-0.022278	-0.43625	0.036621	-0.005035	-0.005646
32.328	0.001984	0.15701	-0.18829	-0.006714	-0.023651	0.070801	-0.086365	0.006409	0.075684	-0.018005	0.011749	-0.004425	0.063019	-0.062866	0.022278	-0.009918	-0.007477	-0.12131	0.17395	-0.027771	0.012512	-0.02182	-0.39108	-0.13641	0.082397	-0.28107	-0.09491	-0.033112	-2.4049	0.014801	-0.002441	-0.008545
32.329	0.045624	0.14923	-0.044861	-0.007629	-0.042419	0.068817	-0.085754	0.00885	0.067291	-0.031128	0.038605	-0.004425	0.061035	-0.073853	0.025024	-0.013428	0.023956	-0.18417	0.24399	-0.055389	-0.11643	-0.1471	-0.20706	-0.11398	0.023956	-0.29678	0.006256	-0.019836	-2.4385	0.17242	-0.001068	0.001068
32.33	-0.0354	0.094757	0.072784	-0.014648	-0.049438	0.032654	-0.08316	0.012207	0.053101	-0.021667	0.06134	-0.008392	0.063019	-0.071869	0.021667	-0.011749	0.032349	-0.24307	0.27329	-0.083008	-0.055389	-0.19134	-0.14771	-0.040894	-0.002594	-0.099335	0.065765	-0.02243	-1.8671	0.23987	-0.00412	-0.004883
